# xmcd
#
# Track frame offsets: 
#        150
#        7905
#        25915
#        40822
#        62517
#        79170
#        97752
#        114252
#        134115
#        150632
#        167610
#        187005
#        205897
#        222875
#        237570
#
# Disc length: 3396 seconds
#
# Revision: 0
# Processed by: cddbd v1.5.2PL0 Copyright (c) Steve Scherf et al.
# Submitted via: ExactAudioCopy v0.99pb4
#
DISCID=c10d420f
DTITLE=Jagged Edge - Jagged Edge
DYEAR=2006
DGENRE=R&B
TTITLE0=Intro
TTITLE1=Ghetto Guitar
TTITLE2=So High
TTITLE3=Watch You
TTITLE4=Hopefully
TTITLE5=Get A Lil' Bit Of This
TTITLE6=Crying Out (Feat. Bad Girl)
TTITLE7=Good Luck Charm
TTITLE8=So Amazing (Feat. Voltio)
TTITLE9=Season's Change (Feat. John Legend)
TTITLE10=Questions
TTITLE11=Sexy American Girls (Feat. Big Duke Of Boyz N Da Hood)
TTITLE12=Baby Feel Me
TTITLE13=Who U Wit?
TTITLE14=A** Hypnotic
EXTD=
EXTT0=
EXTT1=
EXTT2=
EXTT3=
EXTT4=
EXTT5=
EXTT6=
EXTT7=
EXTT8=
EXTT9=
EXTT10=
EXTT11=
EXTT12=
EXTT13=
EXTT14=
PLAYORDER=
